<?xml version="1.0" encoding="UTF-8" standalone="no"?>
<svg
   viewBox="0 0 183.55 77.820381"
   version="1.1"
   id="svg51"
   sodipodi:docname="CCI Logo Blue.svg"
   width="183.55"
   height="77.820381"
   inkscape:version="1.1 (c68e22c387, 2021-05-23)"
   xmlns:inkscape="http://www.inkscape.org/namespaces/inkscape"
   xmlns:sodipodi="http://sodipodi.sourceforge.net/DTD/sodipodi-0.dtd"
   xmlns="http://www.w3.org/2000/svg"
   xmlns:svg="http://www.w3.org/2000/svg">
  <sodipodi:namedview
     id="namedview53"
     pagecolor="#ffffff"
     bordercolor="#999999"
     borderopacity="1"
     inkscape:pageshadow="0"
     inkscape:pageopacity="0"
     inkscape:pagecheckerboard="0"
     showgrid="false"
     fit-margin-left="7.5"
     fit-margin-top="7.5"
     fit-margin-right="7.5"
     fit-margin-bottom="7.5"
     inkscape:zoom="4.3894737"
     inkscape:cx="146.3729"
     inkscape:cy="75.407674"
     inkscape:window-width="3840"
     inkscape:window-height="2036"
     inkscape:window-x="4118"
     inkscape:window-y="916"
     inkscape:window-maximized="1"
     inkscape:current-layer="svg51" />
  <defs
     id="defs4">
    <style
       id="style2">.cls-1{fill:#606b75;}.cls-2{fill:#1372ba;}.cls-3{fill:#1272ba;}</style>
  </defs>
  <g
     id="CCI"
     transform="translate(-58.23,-56.07)">
    <path
       class="cls-1"
       d="m 75.72,120.44 a 3.89,3.89 0 0 0 -2.46,0.7 2.57,2.57 0 0 0 0,3.88 3.88,3.88 0 0 0 2.47,0.69 12.26,12.26 0 0 0 2.26,-0.24 v 0.66 a 10.28,10.28 0 0 1 -2.42,0.25 5.28,5.28 0 0 1 -3.23,-0.86 2.93,2.93 0 0 1 -1.13,-2.45 2.84,2.84 0 0 1 0.55,-1.74 3.43,3.43 0 0 1 1.57,-1.15 6.65,6.65 0 0 1 2.43,-0.41 8.15,8.15 0 0 1 2.6,0.37 l -0.47,0.64 a 6.93,6.93 0 0 0 -2.17,-0.34 z"
       id="path6" />
    <path
       class="cls-1"
       d="m 89.39,123.07 a 2.89,2.89 0 0 1 -1.14,2.42 5.14,5.14 0 0 1 -3.2,0.89 5.2,5.2 0 0 1 -3.22,-0.87 2.93,2.93 0 0 1 -1.13,-2.45 2.86,2.86 0 0 1 1.14,-2.43 5.2,5.2 0 0 1 3.23,-0.87 5.14,5.14 0 0 1 3.18,0.88 2.91,2.91 0 0 1 1.14,2.43 z m -7.53,0 a 2.41,2.41 0 0 0 0.82,2 4.54,4.54 0 0 0 4.75,0 2.84,2.84 0 0 0 0,-4 3.57,3.57 0 0 0 -2.36,-0.67 3.72,3.72 0 0 0 -2.39,0.67 2.41,2.41 0 0 0 -0.82,2 z"
       id="path8" />
    <path
       class="cls-1"
       d="m 96.85,126.29 -3.21,-5.7 v 0 a 12.43,12.43 0 0 1 0.09,1.61 v 4.09 h -1 v -6.43 h 1.65 l 3,5.3 h 0.06 l 3,-5.3 H 102 v 6.43 h -1.1 v -4.14 a 14.53,14.53 0 0 1 0.09,-1.55 v 0 l -3.24,5.69 z"
       id="path10" />
    <path
       class="cls-1"
       d="m 110,126.29 -3.21,-5.7 h -0.05 a 12.43,12.43 0 0 1 0.09,1.61 v 4.09 h -1 v -6.43 h 1.66 l 3,5.3 v 0 l 3,-5.3 h 1.65 v 6.43 h -1.1 v -4.14 a 14.53,14.53 0 0 1 0.09,-1.55 v 0 l -3.24,5.69 z"
       id="path12" />
    <path
       class="cls-1"
       d="m 124.17,126.29 h -5.27 v -6.43 h 5.27 v 0.67 H 120 v 2.07 h 3.92 v 0.66 H 120 v 2.36 h 4.17 z"
       id="path14" />
    <path
       class="cls-1"
       d="m 128.53,123.62 v 2.67 h -1.1 v -6.43 H 130 a 5.45,5.45 0 0 1 2.57,0.46 1.45,1.45 0 0 1 0.84,1.36 c 0,0.85 -0.64,1.42 -1.91,1.72 l 2.57,2.89 h -1.3 l -2.29,-2.67 z m 0,-0.64 H 130 a 3.5,3.5 0 0 0 1.7,-0.32 1,1 0 0 0 0.55,-0.94 1,1 0 0 0 -0.56,-0.92 4.08,4.08 0 0 0 -1.77,-0.28 h -1.43 z"
       id="path16" />
    <path
       class="cls-1"
       d="m 140.83,120.44 a 3.89,3.89 0 0 0 -2.46,0.7 2.57,2.57 0 0 0 0,3.88 3.9,3.9 0 0 0 2.48,0.69 12.17,12.17 0 0 0 2.25,-0.24 v 0.66 a 10.28,10.28 0 0 1 -2.42,0.25 5.3,5.3 0 0 1 -3.23,-0.86 2.93,2.93 0 0 1 -1.13,-2.45 2.84,2.84 0 0 1 0.55,-1.74 3.43,3.43 0 0 1 1.57,-1.15 6.65,6.65 0 0 1 2.43,-0.41 8.15,8.15 0 0 1 2.6,0.37 l -0.46,0.64 a 7,7 0 0 0 -2.18,-0.34 z"
       id="path18" />
    <path
       class="cls-1"
       d="m 151.57,126.29 h -5.27 v -6.43 h 5.27 v 0.67 h -4.17 v 2.07 h 3.92 v 0.66 h -3.92 v 2.36 h 4.17 z"
       id="path20" />
    <path
       class="cls-1"
       d="m 163.48,120.44 a 3.89,3.89 0 0 0 -2.46,0.7 2.57,2.57 0 0 0 0,3.88 3.9,3.9 0 0 0 2.48,0.69 12.17,12.17 0 0 0 2.25,-0.24 v 0.66 a 10.28,10.28 0 0 1 -2.42,0.25 5.25,5.25 0 0 1 -3.22,-0.86 2.91,2.91 0 0 1 -1.14,-2.45 2.84,2.84 0 0 1 0.55,-1.74 3.41,3.41 0 0 1 1.58,-1.15 6.55,6.55 0 0 1 2.42,-0.41 8.15,8.15 0 0 1 2.6,0.37 l -0.46,0.64 a 7,7 0 0 0 -2.18,-0.34 z"
       id="path22" />
    <path
       class="cls-1"
       d="m 177.16,123.07 a 2.9,2.9 0 0 1 -1.15,2.42 5.13,5.13 0 0 1 -3.19,0.89 5.22,5.22 0 0 1 -3.23,-0.87 2.93,2.93 0 0 1 -1.13,-2.45 2.86,2.86 0 0 1 1.14,-2.43 5.22,5.22 0 0 1 3.23,-0.87 5.14,5.14 0 0 1 3.18,0.88 2.92,2.92 0 0 1 1.15,2.43 z m -7.54,0 a 2.44,2.44 0 0 0 0.82,2 3.67,3.67 0 0 0 2.38,0.67 3.6,3.6 0 0 0 2.37,-0.67 2.46,2.46 0 0 0 0.8,-2 2.4,2.4 0 0 0 -0.8,-2 3.57,3.57 0 0 0 -2.36,-0.67 3.74,3.74 0 0 0 -2.39,0.67 2.44,2.44 0 0 0 -0.82,2 z"
       id="path24" />
    <path
       class="cls-1"
       d="m 187.81,126.29 h -1.25 l -5.17,-5.39 v 0 a 15.77,15.77 0 0 1 0.1,1.74 v 3.65 h -1 v -6.43 h 1.24 l 5.15,5.37 h 0.05 c 0,-0.08 0,-0.33 -0.05,-0.76 a 9.21,9.21 0 0 1 0,-0.92 v -3.69 h 1 z"
       id="path26" />
    <path
       class="cls-1"
       d="m 194.48,126.29 h -1.09 v -5.76 h -3 v -0.67 h 7.09 v 0.67 h -3 z"
       id="path28" />
    <path
       class="cls-1"
       d="m 201.16,123.62 v 2.67 h -1.1 v -6.43 h 2.6 a 5.48,5.48 0 0 1 2.57,0.46 1.46,1.46 0 0 1 0.83,1.36 c 0,0.85 -0.64,1.42 -1.9,1.72 l 2.56,2.89 h -1.3 l -2.29,-2.67 z m 0,-0.64 h 1.51 a 3.55,3.55 0 0 0 1.71,-0.32 1,1 0 0 0 0.54,-0.94 1,1 0 0 0 -0.55,-0.92 4.13,4.13 0 0 0 -1.78,-0.28 h -1.43 z"
       id="path30" />
    <path
       class="cls-1"
       d="m 217.62,123.07 a 2.87,2.87 0 0 1 -1.15,2.42 5.11,5.11 0 0 1 -3.19,0.89 5.19,5.19 0 0 1 -3.22,-0.87 2.91,2.91 0 0 1 -1.14,-2.45 2.86,2.86 0 0 1 1.14,-2.43 5.24,5.24 0 0 1 3.23,-0.87 5.14,5.14 0 0 1 3.18,0.88 2.89,2.89 0 0 1 1.15,2.43 z m -7.53,0 a 2.43,2.43 0 0 0 0.81,2 3.67,3.67 0 0 0 2.38,0.67 3.58,3.58 0 0 0 2.37,-0.67 2.85,2.85 0 0 0 0,-4 3.6,3.6 0 0 0 -2.37,-0.67 3.76,3.76 0 0 0 -2.39,0.67 2.44,2.44 0 0 0 -0.8,2 z"
       id="path32" />
    <path
       class="cls-1"
       d="m 220.89,126.29 v -6.43 H 222 v 5.75 h 4.17 v 0.68 z"
       id="path34" />
    <path
       class="cls-1"
       d="m 234.26,124.58 a 1.45,1.45 0 0 1 -0.9,1.32 5.32,5.32 0 0 1 -2.46,0.48 8.68,8.68 0 0 1 -2.59,-0.3 v -0.72 a 8.89,8.89 0 0 0 1.27,0.26 9,9 0 0 0 1.36,0.1 3.74,3.74 0 0 0 1.65,-0.28 0.87,0.87 0 0 0 0.56,-0.79 0.79,0.79 0 0 0 -0.2,-0.55 1.79,1.79 0 0 0 -0.66,-0.39 11.31,11.31 0 0 0 -1.4,-0.41 5.22,5.22 0 0 1 -1.89,-0.76 1.38,1.38 0 0 1 -0.56,-1.15 1.32,1.32 0 0 1 0.82,-1.18 4.62,4.62 0 0 1 2.17,-0.44 9.22,9.22 0 0 1 2.59,0.35 l -0.34,0.65 a 8.38,8.38 0 0 0 -2.28,-0.33 3,3 0 0 0 -1.36,0.25 0.78,0.78 0 0 0 -0.49,0.71 0.83,0.83 0 0 0 0.18,0.55 1.6,1.6 0 0 0 0.61,0.39 9.36,9.36 0 0 0 1.32,0.39 6,6 0 0 1 2,0.78 1.27,1.27 0 0 1 0.6,1.07 z"
       id="path36" />
    <path
       class="cls-2"
       d="m 80.61,83.7 a 6.84,6.84 0 0 1 0.51,-1 10.84,10.84 0 0 1 2.61,-2.7 21.47,21.47 0 0 1 5,-2.74 37.82,37.82 0 0 1 6.67,-2 43.92,43.92 0 0 1 4.6,-0.66 c 0.76,-0.08 1.53,-0.17 2.29,-0.22 1.31,-0.08 2.61,-0.15 3.92,-0.19 0.78,0 1.56,0 2.35,0 a 37.45,37.45 0 0 1 3.81,0.23 c 1.25,0.13 2.5,0.27 3.75,0.46 a 41.85,41.85 0 0 1 5.72,1.3 29.41,29.41 0 0 1 5,1.94 c 0.75,0.39 1.47,0.82 2.2,1.24 0.3,0.18 0.3,0.19 0.52,-0.1 l 0.73,-1 5.61,-7.52 c 0.08,-0.1 0.15,-0.21 0.23,-0.33 l -0.16,-0.12 c -1.11,-0.55 -2.21,-1.14 -3.33,-1.65 a 48.27,48.27 0 0 0 -6.57,-2.4 51.54,51.54 0 0 0 -5.74,-1.38 c -1.33,-0.23 -2.65,-0.44 -4,-0.64 -0.64,-0.1 -1.29,-0.17 -1.93,-0.23 l -3,-0.26 c -0.52,0 -1,-0.06 -1.58,-0.09 -0.26,0 -0.53,0 -0.79,0 a 0.68,0.68 0 0 1 -0.23,-0.07 h -4.48 a 1.3,1.3 0 0 1 -0.33,0.07 c -0.23,0 -0.46,0 -0.69,0 -0.53,0 -1.08,0.05 -1.61,0.09 -1,0.08 -2,0.16 -2.94,0.26 -0.82,0.09 -1.65,0.19 -2.47,0.3 -2.05,0.27 -4.07,0.66 -6.08,1.13 A 55.21,55.21 0 0 0 81.49,68.21 39.79,39.79 0 0 0 74.56,72 26.41,26.41 0 0 0 70,75.77 16.77,16.77 0 0 0 66.39,81.33 12.68,12.68 0 0 0 65.73,83.7 Z"
       id="path38" />
    <path
       class="cls-2"
       d="m 136,101 -5.26,-7 -1.18,-1.56 c -0.21,-0.28 -0.21,-0.28 -0.52,-0.09 v 0 a 22.19,22.19 0 0 1 -2.74,1.52 34.28,34.28 0 0 1 -6,2.09 49.37,49.37 0 0 1 -6.4,1.18 q -2.47,0.3 -4.95,0.39 a 40.25,40.25 0 0 1 -4.66,0 c -1.07,-0.08 -2.15,-0.12 -3.23,-0.22 -1.08,-0.1 -2.15,-0.22 -3.21,-0.39 A 42.09,42.09 0 0 1 90,95 24.57,24.57 0 0 1 84.32,92.21 11.2,11.2 0 0 1 81,88.93 C 80.91,88.79 80.84,88.64 80.76,88.5 h -15 a 13.51,13.51 0 0 0 1.38,3.71 19.73,19.73 0 0 0 4.53,5.47 32.1,32.1 0 0 0 6.25,4.2 49.38,49.38 0 0 0 9.17,3.65 64.77,64.77 0 0 0 8.72,1.88 c 2.11,0.31 4.22,0.51 6.34,0.65 0.87,0.06 1.75,0.09 2.63,0.09 1.66,0 3.32,0 5,-0.07 0.84,0 1.68,-0.08 2.52,-0.14 1,-0.08 2,-0.18 3,-0.29 1.74,-0.18 3.47,-0.47 5.19,-0.8 a 62.13,62.13 0 0 0 7.36,-1.91 48.78,48.78 0 0 0 7.56,-3.22 l 0.77,-0.43 z"
       id="path40" />
    <path
       class="cls-2"
       d="m 156.24,83.33 a 9.06,9.06 0 0 1 2.21,-2.72 19.64,19.64 0 0 1 4.76,-2.9 38.15,38.15 0 0 1 9,-2.65 45.75,45.75 0 0 1 5.46,-0.68 c 1.14,-0.07 2.28,-0.16 3.41,-0.18 0.95,0 1.9,0 2.85,0 a 37.1,37.1 0 0 1 3.81,0.23 c 1.11,0.12 2.22,0.22 3.33,0.39 a 44.12,44.12 0 0 1 5.32,1.18 29.58,29.58 0 0 1 8,3.35 c 0.42,0.26 0.42,0.26 0.72,-0.14 l 6,-8.07 0.48,-0.65 a 1.45,1.45 0 0 0 -0.23,-0.15 C 210.48,69.89 209.6,69.43 208.71,69 a 48.2,48.2 0 0 0 -6.6,-2.51 53.15,53.15 0 0 0 -5.73,-1.49 c -1.52,-0.29 -3,-0.53 -4.58,-0.77 -0.68,-0.11 -1.36,-0.17 -2,-0.24 L 187,63.78 c -0.55,0 -1.1,-0.06 -1.66,-0.09 -0.26,0 -0.52,0 -0.79,0 a 0.63,0.63 0 0 1 -0.22,-0.07 h -4.56 a 0.57,0.57 0 0 1 -0.22,0.07 c -0.26,0 -0.53,0 -0.79,0 l -1.4,0.08 c -1.1,0.09 -2.2,0.17 -3.3,0.28 -1.1,0.11 -2.07,0.24 -3.11,0.39 -1.72,0.27 -3.43,0.59 -5.12,1 a 57.1,57.1 0 0 0 -8.22,2.56 42.52,42.52 0 0 0 -5.61,2.72 28.13,28.13 0 0 0 -6.9,5.47 17.09,17.09 0 0 0 -2.91,4.37 14,14 0 0 0 -0.91,2.77 z"
       id="path42" />
    <path
       class="cls-2"
       d="m 211.42,101 -1.7,-2.25 c -1.48,-2 -3,-3.91 -4.45,-5.86 a 1.37,1.37 0 0 0 -0.29,-0.24 h -0.65 a 3.26,3.26 0 0 0 -0.44,0.15 c -0.5,0.27 -1,0.57 -1.48,0.82 a 30.9,30.9 0 0 1 -4.83,1.91 45.34,45.34 0 0 1 -7.38,1.59 c -1.43,0.19 -2.86,0.32 -4.3,0.43 -1,0.08 -2,0.1 -3,0.1 -1,0 -2.17,0 -3.25,-0.07 -1.08,-0.07 -2.13,-0.13 -3.19,-0.22 a 41.85,41.85 0 0 1 -4.32,-0.57 39.53,39.53 0 0 1 -8.4,-2.4 20.48,20.48 0 0 1 -5,-2.91 9.17,9.17 0 0 1 -2.62,-3.18 l -0.05,-0.12 H 141.2 a 11.8,11.8 0 0 0 0.4,1.66 16.54,16.54 0 0 0 3.88,6.27 27.24,27.24 0 0 0 4.8,4 40.29,40.29 0 0 0 5.15,2.84 50,50 0 0 0 6.47,2.45 53.66,53.66 0 0 0 5.45,1.38 c 1.3,0.26 2.61,0.5 3.93,0.7 0.88,0.14 1.76,0.24 2.64,0.32 1.26,0.13 2.51,0.24 3.77,0.34 0.74,0 1.48,0.06 2.23,0.07 1.78,0 3.56,0.07 5.34,0 1.14,-0.08 2.28,-0.14 3.41,-0.23 0.83,-0.06 1.66,-0.12 2.47,-0.24 1.62,-0.24 3.23,-0.48 4.84,-0.78 a 54,54 0 0 0 6.84,-1.74 48,48 0 0 0 8,-3.32 l 0.86,-0.49 c -0.11,-0.25 -0.18,-0.36 -0.26,-0.41 z"
       id="path44" />
    <path
       class="cls-3"
       d="m 222.85,83.33 h 11.41 V 63.62 h -11.42 c 0,0.16 0,0.32 0,0.47 z"
       id="path46" />
    <path
       class="cls-3"
       d="m 222.85,88.13 v 20 c 0,0.16 0,0.33 0,0.5 H 223 a 2.93,2.93 0 0 1 0.41,-0.07 h 10.87 V 88.13 Z"
       id="path48" />
  </g>
</svg>
