<?xml version="1.0" standalone="no"?>
<!DOCTYPE svg PUBLIC "-//W3C//DTD SVG 20010904//EN"
 "http://www.w3.org/TR/2001/REC-SVG-20010904/DTD/svg10.dtd">
<svg version="1.0" xmlns="http://www.w3.org/2000/svg"
 width="1280.000000pt" height="1280.000000pt" viewBox="0 0 1280.000000 1280.000000"
 preserveAspectRatio="xMidYMid meet">
<metadata>
Created by potrace 1.14, written by Peter Selinger 2001-2017
</metadata>
<g transform="translate(0.000000,1280.000000) scale(0.100000,-0.100000)"
fill="#000000" stroke="none">
<path d="M6806 10283 c-4 -4 -42 -9 -84 -10 -102 -3 -220 -10 -457 -29 -79 -6
-161 -13 -200 -18 -22 -3 -69 -8 -105 -12 -119 -12 -225 -24 -265 -30 -30 -5
-55 -9 -130 -18 -60 -8 -149 -21 -205 -31 -48 -9 -66 -12 -130 -20 -30 -4 -58
-9 -61 -11 -4 -2 -24 -6 -45 -10 -22 -3 -50 -7 -64 -10 -14 -3 -47 -9 -75 -14
-27 -5 -61 -12 -75 -15 -14 -3 -40 -8 -59 -11 -19 -2 -37 -7 -41 -9 -4 -3 -25
-7 -46 -10 -22 -4 -47 -8 -56 -11 -9 -3 -25 -7 -35 -9 -80 -16 -230 -52 -343
-81 -74 -20 -142 -37 -150 -39 -27 -7 -275 -75 -285 -79 -5 -2 -12 -4 -15 -4
-3 -1 -39 -13 -80 -27 -41 -14 -84 -27 -95 -30 -23 -4 -78 -23 -115 -38 -14
-6 -29 -11 -35 -13 -5 -1 -62 -21 -125 -43 -63 -23 -122 -43 -130 -45 -8 -3
-49 -19 -90 -36 -41 -17 -77 -31 -80 -32 -40 -6 -638 -274 -735 -330 -11 -6
-47 -25 -80 -42 -33 -17 -62 -33 -65 -36 -3 -3 -18 -12 -35 -20 -25 -13 -105
-58 -167 -95 -9 -5 -43 -25 -75 -44 -55 -32 -372 -241 -396 -262 -7 -5 -43
-33 -82 -61 -38 -29 -81 -62 -95 -75 -14 -13 -28 -23 -31 -23 -3 0 -19 -12
-35 -27 -17 -16 -45 -40 -64 -56 -111 -89 -350 -320 -445 -431 -27 -32 -57
-66 -66 -76 -41 -44 -182 -235 -245 -330 -86 -132 -219 -393 -268 -529 -21
-57 -39 -108 -40 -115 -1 -6 -7 -27 -14 -46 -22 -64 -21 -96 3 -126 l22 -28
1246 0 c1206 0 1247 1 1267 19 11 10 35 44 52 74 17 31 34 58 37 61 4 3 26 32
51 65 71 96 267 287 366 356 27 19 55 40 63 47 52 50 456 292 486 292 7 0 15
3 17 8 7 15 383 183 392 174 3 -3 6 0 6 7 0 6 6 11 13 10 6 -1 34 8 61 20 50
22 453 159 490 166 12 2 21 4 21 5 0 1 7 3 15 5 8 2 56 15 105 30 50 14 99 27
110 29 11 3 58 14 105 26 47 12 96 24 110 27 40 8 55 11 60 13 3 1 10 3 15 4
6 1 26 5 45 10 19 4 46 8 60 10 14 2 45 9 70 16 25 6 61 14 80 15 19 2 46 7
60 10 14 4 35 8 47 10 12 2 36 6 55 10 18 4 44 9 58 10 14 2 41 6 60 9 62 10
234 35 285 41 88 11 110 14 110 15 0 1 47 6 145 15 36 3 83 7 105 10 491 58
1447 63 1990 11 28 -3 79 -8 115 -11 36 -3 83 -7 105 -10 86 -10 152 -17 191
-21 22 -2 55 -6 72 -9 68 -11 89 -14 137 -20 28 -3 75 -10 105 -15 30 -5 71
-12 90 -15 51 -8 151 -25 180 -31 14 -3 36 -7 50 -9 14 -2 79 -16 145 -30 66
-14 134 -28 150 -31 17 -3 44 -9 61 -15 17 -5 42 -12 55 -14 20 -4 50 -11 92
-21 4 -1 9 -3 12 -4 3 -1 8 -3 13 -4 69 -16 119 -30 128 -37 6 -5 13 -6 16 -4
3 3 18 1 34 -6 16 -6 39 -13 51 -15 75 -14 558 -182 647 -225 22 -11 43 -19
47 -19 19 0 311 -141 449 -217 65 -36 103 -51 120 -48 25 4 73 52 114 112 37
56 319 428 333 439 7 6 13 16 13 22 0 6 3 12 8 14 4 2 36 42 72 91 35 48 68
87 72 87 4 0 8 6 8 13 0 7 10 23 23 37 12 14 33 41 47 60 13 19 27 37 30 40 3
3 32 41 64 85 33 44 63 82 68 83 4 2 8 8 8 14 0 5 6 16 13 23 15 17 24 29 62
80 16 22 35 46 42 53 7 7 13 17 13 20 0 4 10 18 23 32 37 40 65 84 68 105 7
50 -12 70 -129 130 -29 15 -55 31 -58 36 -3 5 -14 9 -24 9 -10 0 -20 4 -22 8
-3 8 -208 110 -358 180 -125 57 -145 66 -150 67 -3 1 -27 11 -53 23 -27 12
-51 22 -53 22 -2 0 -26 9 -52 21 -86 38 -229 94 -322 125 -30 11 -58 23 -61
27 -3 5 -9 8 -13 7 -7 -2 -187 55 -221 70 -20 9 -91 32 -110 36 -5 1 -39 12
-75 24 -36 12 -72 23 -81 25 -8 2 -62 17 -120 34 -97 28 -181 51 -204 57 -10
2 -190 47 -255 64 -33 9 -149 35 -197 45 -13 3 -31 7 -40 9 -17 4 -236 49
-298 61 -16 3 -48 8 -69 11 -22 3 -43 7 -47 9 -3 3 -26 7 -50 10 -24 3 -55 8
-69 10 -14 3 -36 7 -50 10 -14 2 -56 8 -95 14 -92 14 -120 19 -120 21 0 0 -18
3 -40 5 -22 2 -58 6 -80 9 -22 3 -62 9 -90 12 -27 3 -61 8 -75 9 -64 9 -120
15 -175 20 -33 3 -72 8 -86 10 -14 3 -59 7 -100 10 -41 4 -92 8 -114 9 -160
14 -337 26 -452 30 -56 2 -107 7 -113 11 -5 3 -10 2 -10 -3 0 -5 -17 -6 -41
-2 -52 10 -926 10 -978 0 -22 -4 -44 -3 -49 2 -4 4 -12 5 -16 1z"/>
<path d="M237 6012 c-27 -3 -59 -38 -63 -69 -2 -8 5 -38 14 -66 8 -29 16 -54
17 -57 3 -13 27 -87 35 -105 8 -19 17 -45 21 -63 3 -9 62 -139 102 -221 17
-36 35 -67 39 -69 4 -2 8 -9 8 -15 0 -7 18 -40 40 -75 22 -34 40 -67 40 -72 0
-6 5 -10 10 -10 6 0 10 -5 10 -11 0 -6 8 -21 18 -34 9 -12 24 -33 32 -45 29
-45 149 -205 177 -237 15 -17 42 -49 58 -69 72 -89 386 -396 502 -489 7 -5 19
-16 27 -22 80 -67 127 -103 136 -103 5 0 10 -5 10 -10 0 -6 8 -14 18 -17 9 -4
22 -11 27 -15 6 -5 24 -20 40 -33 17 -14 82 -60 145 -102 63 -43 117 -81 118
-85 2 -5 8 -8 12 -8 9 0 176 -101 198 -120 6 -6 12 -8 12 -5 0 4 12 -2 28 -13
28 -20 130 -78 169 -96 13 -6 23 -14 23 -18 0 -5 9 -8 19 -8 11 0 21 -3 23 -8
3 -7 410 -212 422 -212 2 0 37 -15 78 -34 40 -18 114 -50 163 -70 50 -21 104
-43 120 -50 17 -8 41 -17 54 -21 13 -4 40 -14 60 -23 20 -9 41 -17 46 -18 6
-1 24 -8 40 -15 17 -7 32 -13 35 -14 3 -1 20 -6 38 -10 17 -4 32 -11 32 -14 0
-4 24 -13 53 -21 28 -7 59 -16 67 -21 32 -16 421 -140 450 -143 9 -1 20 -5 25
-8 9 -5 68 -21 90 -24 6 0 17 -4 25 -7 20 -9 222 -62 290 -77 30 -6 62 -14 70
-18 8 -3 20 -6 25 -7 11 -1 84 -17 100 -21 17 -5 238 -53 270 -58 51 -10 76
-15 93 -20 9 -3 33 -8 52 -11 33 -4 53 -8 118 -20 15 -3 43 -8 62 -11 19 -2
44 -7 55 -9 40 -8 71 -14 110 -19 22 -3 56 -8 75 -11 107 -17 233 -34 239 -33
3 1 17 -2 31 -5 24 -6 82 -13 185 -22 28 -2 66 -6 85 -9 53 -8 196 -21 320
-30 41 -4 100 -8 130 -11 57 -5 181 -13 330 -22 153 -8 1064 -11 1113 -3 26 4
50 3 53 -2 3 -4 10 -5 16 -2 5 4 40 8 77 10 197 9 417 25 586 40 39 4 84 8
100 9 17 1 30 3 30 4 0 1 27 4 59 6 33 2 76 7 95 10 39 7 106 15 161 20 19 1
35 4 35 5 0 2 14 4 30 5 32 2 106 12 141 19 12 2 45 7 74 11 29 4 62 9 74 11
12 2 32 6 46 8 14 3 43 8 65 11 22 3 63 10 90 15 28 5 64 12 80 15 37 6 71 13
110 21 17 4 41 8 55 10 14 1 26 3 28 4 4 4 50 14 112 24 14 2 32 7 40 10 8 3
29 7 45 10 17 3 48 10 70 16 22 6 51 12 65 15 14 2 54 11 90 20 36 9 73 18 83
20 10 2 27 7 37 10 10 3 27 8 37 10 10 2 54 14 98 25 44 12 87 23 95 25 8 2
56 16 105 30 50 15 95 27 100 29 6 1 64 19 130 40 66 21 120 38 120 37 0 -2
14 3 30 9 30 12 241 88 260 94 20 6 51 18 83 32 18 8 37 14 42 14 6 0 29 9 53
19 23 10 62 27 87 36 25 9 56 22 70 28 14 6 27 11 30 12 6 2 34 14 103 44 26
11 48 20 50 20 1 0 35 16 75 36 40 19 75 35 78 35 9 0 275 132 324 160 25 15
47 26 50 26 3 0 26 12 53 27 26 15 67 38 91 52 53 30 58 36 59 78 1 24 -12 49
-49 97 -27 36 -51 67 -54 70 -5 4 -199 261 -288 380 -18 25 -40 54 -49 64 -9
11 -31 40 -50 65 -19 25 -45 60 -58 76 -68 88 -112 145 -125 165 -8 13 -25 35
-37 50 -12 15 -40 51 -62 81 -22 30 -44 59 -48 64 -5 6 -31 39 -58 75 -27 36
-53 70 -57 75 -4 6 -33 43 -64 83 -30 39 -58 72 -62 73 -4 0 -15 2 -25 4 -17
3 -167 -70 -178 -87 -3 -6 -10 -10 -15 -10 -5 0 -63 -27 -129 -59 -65 -32
-123 -59 -127 -59 -4 0 -39 -15 -78 -34 -38 -19 -70 -32 -70 -30 0 2 -10 -2
-22 -10 -13 -8 -27 -16 -33 -17 -5 -1 -20 -5 -33 -10 -13 -5 -26 -9 -28 -9 -3
0 -26 -9 -51 -21 -25 -11 -53 -22 -62 -24 -9 -2 -81 -26 -161 -53 -145 -49
-219 -73 -275 -88 -35 -9 -35 -9 -55 -17 -17 -7 -125 -36 -155 -42 -11 -2 -35
-8 -52 -13 -18 -6 -33 -8 -33 -5 0 3 -6 0 -13 -6 -8 -6 -17 -8 -20 -5 -3 3
-12 2 -19 -2 -7 -5 -22 -10 -33 -11 -11 -2 -47 -10 -80 -18 -33 -8 -72 -16
-88 -19 -15 -3 -35 -7 -45 -10 -9 -3 -33 -8 -52 -10 -19 -3 -55 -10 -80 -17
-42 -10 -58 -13 -127 -23 -26 -4 -82 -14 -128 -23 -11 -2 -36 -6 -55 -9 -19
-3 -75 -11 -125 -19 -49 -8 -115 -17 -145 -20 -30 -3 -73 -8 -95 -12 -67 -10
-95 -13 -274 -28 -29 -2 -70 -7 -90 -9 -20 -3 -74 -8 -121 -11 -47 -3 -116 -8
-155 -11 -517 -36 -1390 -17 -1880 42 -64 8 -98 12 -160 18 -27 2 -64 7 -81
10 -36 7 -97 16 -139 21 -87 10 -122 15 -145 20 -14 3 -43 8 -65 11 -22 3 -47
7 -55 9 -8 3 -32 7 -54 11 -21 3 -48 8 -60 10 -11 3 -32 7 -46 10 -40 7 -123
24 -150 30 -14 3 -36 7 -50 10 -22 4 -50 10 -77 16 -5 1 -60 15 -123 30 -63
16 -124 30 -135 33 -11 2 -76 21 -145 40 -69 20 -132 37 -140 39 -14 4 -310
100 -338 111 -7 2 -16 5 -20 6 -4 0 -16 6 -27 12 -11 6 -29 12 -40 14 -11 2
-24 8 -29 13 -6 6 -15 10 -22 10 -6 0 -29 8 -50 17 -22 9 -41 17 -44 18 -3 1
-23 9 -45 19 -22 10 -58 25 -80 33 -22 9 -44 20 -50 25 -5 4 -17 8 -27 8 -10
0 -18 5 -18 10 0 6 -5 10 -11 10 -15 0 -245 116 -280 141 -14 10 -28 16 -31
13 -3 -2 -11 2 -18 11 -7 8 -19 15 -26 15 -8 0 -14 4 -14 9 0 5 -11 12 -25 15
-14 4 -25 11 -25 16 0 6 -4 10 -9 10 -12 0 -181 112 -204 135 -9 9 -17 13 -17
8 0 -4 -4 -3 -8 2 -4 6 -41 37 -82 70 -119 95 -306 287 -348 357 -9 15 -20 28
-24 28 -4 0 -8 4 -8 9 0 13 -77 128 -92 137 -11 7 -2421 13 -2481 6z"/>
</g>
</svg>
